<svg xmlns="http://www.w3.org/2000/svg" width="26.107" height="26.107" viewBox="0 0 26.107 26.107">
  <path id="Path_60" data-name="Path 60" d="M24.357,6.5a13,13,0,0,0-4.751-4.751A12.769,12.769,0,0,0,13.054,0,12.769,12.769,0,0,0,6.5,1.751,13,13,0,0,0,1.751,6.5,12.768,12.768,0,0,0,0,13.054a12.771,12.771,0,0,0,1.751,6.552A13,13,0,0,0,6.5,24.357a12.77,12.77,0,0,0,6.552,1.751,12.77,12.77,0,0,0,6.553-1.751,13,13,0,0,0,4.75-4.751,12.771,12.771,0,0,0,1.75-6.552A12.772,12.772,0,0,0,24.357,6.5Zm-11.3-4.6a10.744,10.744,0,0,1,7.36,2.787l-.212.3a7.373,7.373,0,0,1-.637.689,10.925,10.925,0,0,1-1.113.969,14.912,14.912,0,0,1-1.64,1.045A15.778,15.778,0,0,1,14.6,8.719a48.474,48.474,0,0,0-4.181-6.493A11.245,11.245,0,0,1,13.054,1.9ZM4.318,6.135A11,11,0,0,1,8.295,2.974,58.512,58.512,0,0,1,12.442,9.4a40.323,40.323,0,0,1-10.3,1.36A11.02,11.02,0,0,1,4.318,6.135ZM2.652,17.074a10.937,10.937,0,0,1-.748-4.02,2.77,2.77,0,0,1,.017-.357A39.754,39.754,0,0,0,13.36,11.116q.544,1.054.9,1.887a1.375,1.375,0,0,1-.221.076l-.222.059-.629.221a13.073,13.073,0,0,0-1.691.816q-1.045.578-2.218,1.377a15.186,15.186,0,0,0-2.422,2.117,14.247,14.247,0,0,0-2.1,2.83A11.163,11.163,0,0,1,2.652,17.074Zm10.4,7.13a10.94,10.94,0,0,1-7.1-2.55l.255.187a9.1,9.1,0,0,1,1.751-2.516,14.776,14.776,0,0,1,2.227-1.946,21.942,21.942,0,0,1,2.329-1.394q1.258-.654,1.717-.832t.731-.281l.034-.017h.034A45.949,45.949,0,0,1,17.4,23.32,11.145,11.145,0,0,1,13.054,24.2Zm9.383-5.125A11.138,11.138,0,0,1,19.292,22.3a47.889,47.889,0,0,0-2.176-7.972,16.058,16.058,0,0,1,6.952.493A11,11,0,0,1,22.437,19.079Zm1.6-6.178q-.17-.034-.425-.076l-.621-.1q-.365-.059-.816-.11t-.961-.093q-.51-.043-1.088-.068t-1.173-.025q-.594,0-1.249.034t-1.266.119a2.013,2.013,0,0,1-.128-.281c-.051-.13-.088-.229-.11-.3q-.323-.714-.749-1.615a17.442,17.442,0,0,0,2.236-1.1,17.372,17.372,0,0,0,1.7-1.1,14.128,14.128,0,0,0,1.207-1.029,9.809,9.809,0,0,0,.74-.756q.17-.213.323-.416l.017-.017A10.9,10.9,0,0,1,24.2,12.935Z" transform="translate(0 0)" fill="#151d41"/>
</svg>
