<svg xmlns="http://www.w3.org/2000/svg" width="15.31" height="28.317" viewBox="0 0 15.31 28.317">
  <path id="Path_58" data-name="Path 58" d="M36.81.006,33.138,0c-4.126,0-6.792,2.735-6.792,6.969v3.213H22.654a.577.577,0,0,0-.577.578v4.655a.577.577,0,0,0,.577.577h3.692V27.74a.577.577,0,0,0,.577.577h4.817a.577.577,0,0,0,.577-.577V15.993h4.317a.577.577,0,0,0,.577-.577l0-4.655a.578.578,0,0,0-.578-.578H32.319V7.458c0-1.309.312-1.974,2.017-1.974H36.81a.577.577,0,0,0,.577-.577V.583A.578.578,0,0,0,36.81.006Z" transform="translate(-22.077)" fill="#151d41"/>
</svg>
