<svg xmlns="http://www.w3.org/2000/svg" width="25.725" height="26" viewBox="0 0 25.725 26">
  <g id="linkedin" transform="translate(-0.248 0.027)">
    <g id="Group_69" data-name="Group 69" transform="translate(0.331 8.344)">
      <g id="Group_68" data-name="Group 68">
        <rect id="Rectangle_78" data-name="Rectangle 78" width="5.734" height="17.629" fill="#151d41"/>
      </g>
    </g>
    <g id="Group_71" data-name="Group 71" transform="translate(8.344 8.344)">
      <g id="Group_70" data-name="Group 70">
        <path id="Path_61" data-name="Path 61" d="M173.34,160.207c-.061-.019-.119-.04-.183-.058s-.154-.032-.232-.045a5.14,5.14,0,0,0-1.029-.1,7.967,7.967,0,0,0-6.162,3.37V160H160v17.629h5.734v-9.616s4.334-6.036,6.162-1.6v11.218h5.733v-11.9A5.717,5.717,0,0,0,173.34,160.207Z" transform="translate(-160 -160)" fill="#151d41"/>
      </g>
    </g>
    <g id="Group_73" data-name="Group 73" transform="translate(0 0)">
      <g id="Group_72" data-name="Group 72">
        <circle id="Ellipse_14" data-name="Ellipse 14" cx="3" cy="3" r="3" transform="translate(0.248 -0.027)" fill="#151d41"/>
      </g>
    </g>
  </g>
</svg>
